<svg width="995" height="995" viewBox="0 0 995 995" fill="none" xmlns="http://www.w3.org/2000/svg">
<path d="M993.25 497.25L993.15 628.05L992.75 669.75L992.15 700.05L991.25 724.65L990.05 745.65L988.65 764.25L987.05 780.85L985.15 796.05L982.95 810.05L980.45 822.95L977.75 835.05L974.85 846.25L971.55 856.85L968.05 866.85L964.25 876.25L960.15 885.05L955.75 893.45L951.05 901.35L946.05 908.85L940.65 915.95L935.05 922.65L929.05 929.05L922.65 935.05L915.95 940.65L908.85 946.05L901.35 951.05L893.45 955.75L885.05 960.15L876.25 964.25L866.85 968.05L856.85 971.55L846.25 974.85L835.05 977.75L822.95 980.45L810.05 982.95L796.05 985.15L780.85 987.05L764.25 988.65L745.65 990.05L724.65 991.25L700.05 992.15L669.75 992.75L628.05 993.15L497.25 993.25L366.45 993.15L324.75 992.75L294.45 992.15L269.85 991.25L248.85 990.05L230.25 988.65L213.65 987.05L198.45 985.15L184.45 982.95L171.55 980.45L159.45 977.75L148.25 974.85L137.65 971.55L127.65 968.05L118.25 964.25L109.45 960.15L101.05 955.75L93.15 951.05L85.65 946.05L78.55 940.65L71.85 935.05L65.45 929.05L59.45 922.65L53.85 915.95L48.45 908.85L43.45 901.35L38.75 893.45L34.35 885.05L30.25 876.25L26.45 866.85L22.95 856.85L19.65 846.25L16.75 835.05L14.05 822.95L11.55 810.05L9.35 796.05L7.45 780.85L5.85 764.25L4.45 745.65L3.25 724.65L2.35 700.05L1.75 669.75L1.35 628.05L1.25 497.25L1.35 366.45L1.75 324.75L2.35 294.45L3.25 269.85L4.45 248.85L5.85 230.25L7.45 213.65L9.35 198.45L11.55 184.45L14.05 171.55L16.75 159.45L19.65 148.25L22.95 137.65L26.45 127.65L30.25 118.25L34.35 109.45L38.75 101.05L43.45 93.15L48.45 85.65L53.85 78.55L59.45 71.85L65.45 65.45L71.85 59.45L78.55 53.85L85.65 48.45L93.15 43.45L101.05 38.75L109.45 34.35L118.25 30.25L127.65 26.45L137.65 22.95L148.25 19.65L159.45 16.75L171.55 14.05L184.45 11.55L198.45 9.35L213.65 7.45L230.25 5.85L248.85 4.45L269.85 3.25L294.45 2.35L324.75 1.75L366.45 1.35L497.25 1.25L628.05 1.35L669.75 1.75L700.05 2.35L724.65 3.25L745.65 4.45L764.25 5.85L780.85 7.45L796.05 9.35L810.05 11.55L822.95 14.05L835.05 16.75L846.25 19.65L856.85 22.95L866.85 26.45L876.25 30.25L885.05 34.35L893.45 38.75L901.35 43.45L908.85 48.45L915.95 53.85L922.65 59.45L929.05 65.45L935.05 71.85L940.65 78.55L946.05 85.65L951.05 93.15L955.75 101.05L960.15 109.45L964.25 118.25L968.05 127.65L971.55 137.65L974.85 148.25L977.75 159.45L980.45 171.55L982.95 184.45L985.15 198.45L987.05 213.65L988.65 230.25L990.05 248.85L991.25 269.85L992.15 294.45L992.75 324.75L993.15 366.45L993.25 497.25Z" fill="url(#paint0_linear_172_29)"/>
<mask id="mask0_172_29" style="mask-type:luminance" maskUnits="userSpaceOnUse" x="1" y="1" width="993" height="993">
<path d="M993.25 497.25L993.15 628.05L992.75 669.75L992.15 700.05L991.25 724.65L990.05 745.65L988.65 764.25L987.05 780.85L985.15 796.05L982.95 810.05L980.45 822.95L977.75 835.05L974.85 846.25L971.55 856.85L968.05 866.85L964.25 876.25L960.15 885.05L955.75 893.45L951.05 901.35L946.05 908.85L940.65 915.95L935.05 922.65L929.05 929.05L922.65 935.05L915.95 940.65L908.85 946.05L901.35 951.05L893.45 955.75L885.05 960.15L876.25 964.25L866.85 968.05L856.85 971.55L846.25 974.85L835.05 977.75L822.95 980.45L810.05 982.95L796.05 985.15L780.85 987.05L764.25 988.65L745.65 990.05L724.65 991.25L700.05 992.15L669.75 992.75L628.05 993.15L497.25 993.25L366.45 993.15L324.75 992.75L294.45 992.15L269.85 991.25L248.85 990.05L230.25 988.65L213.65 987.05L198.45 985.15L184.45 982.95L171.55 980.45L159.45 977.75L148.25 974.85L137.65 971.55L127.65 968.05L118.25 964.25L109.45 960.15L101.05 955.75L93.15 951.05L85.65 946.05L78.55 940.65L71.85 935.05L65.45 929.05L59.45 922.65L53.85 915.95L48.45 908.85L43.45 901.35L38.75 893.45L34.35 885.05L30.25 876.25L26.45 866.85L22.95 856.85L19.65 846.25L16.75 835.05L14.05 822.95L11.55 810.05L9.35 796.05L7.45 780.85L5.85 764.25L4.45 745.65L3.25 724.65L2.35 700.05L1.75 669.75L1.35 628.05L1.25 497.25L1.35 366.45L1.75 324.75L2.35 294.45L3.25 269.85L4.45 248.85L5.85 230.25L7.45 213.65L9.35 198.45L11.55 184.45L14.05 171.55L16.75 159.45L19.65 148.25L22.95 137.65L26.45 127.65L30.25 118.25L34.35 109.45L38.75 101.05L43.45 93.15L48.45 85.65L53.85 78.55L59.45 71.85L65.45 65.45L71.85 59.45L78.55 53.85L85.65 48.45L93.15 43.45L101.05 38.75L109.45 34.35L118.25 30.25L127.65 26.45L137.65 22.95L148.25 19.65L159.45 16.75L171.55 14.05L184.45 11.55L198.45 9.35L213.65 7.45L230.25 5.85L248.85 4.45L269.85 3.25L294.45 2.35L324.75 1.75L366.45 1.35L497.25 1.25L628.05 1.35L669.75 1.75L700.05 2.35L724.65 3.25L745.65 4.45L764.25 5.85L780.85 7.45L796.05 9.35L810.05 11.55L822.95 14.05L835.05 16.75L846.25 19.65L856.85 22.95L866.85 26.45L876.25 30.25L885.05 34.35L893.45 38.75L901.35 43.45L908.85 48.45L915.95 53.85L922.65 59.45L929.05 65.45L935.05 71.85L940.65 78.55L946.05 85.65L951.05 93.15L955.75 101.05L960.15 109.45L964.25 118.25L968.05 127.65L971.55 137.65L974.85 148.25L977.75 159.45L980.45 171.55L982.95 184.45L985.15 198.45L987.05 213.65L988.65 230.25L990.05 248.85L991.25 269.85L992.15 294.45L992.75 324.75L993.15 366.45L993.25 497.25Z" fill="white"/>
</mask>
<g mask="url(#mask0_172_29)">
<path d="M993.25 1.25H1.25V993.25H993.25V1.25Z" fill="url(#paint1_radial_172_29)"/>
<path d="M544.25 195.25H450.25C429.263 195.25 412.25 212.263 412.25 233.25V327.25C412.25 348.237 429.263 365.25 450.25 365.25H544.25C565.237 365.25 582.25 348.237 582.25 327.25V233.25C582.25 212.263 565.237 195.25 544.25 195.25Z" fill="url(#paint2_linear_172_29)"/>
<path d="M327.25 412.25H233.25C212.263 412.25 195.25 429.263 195.25 450.25V544.25C195.25 565.237 212.263 582.25 233.25 582.25H327.25C348.237 582.25 365.25 565.237 365.25 544.25V450.25C365.25 429.263 348.237 412.25 327.25 412.25Z" fill="url(#paint3_linear_172_29)"/>
<path d="M761.25 412.25H667.25C646.263 412.25 629.25 429.263 629.25 450.25V544.25C629.25 565.237 646.263 582.25 667.25 582.25H761.25C782.237 582.25 799.25 565.237 799.25 544.25V450.25C799.25 429.263 782.237 412.25 761.25 412.25Z" fill="url(#paint4_linear_172_29)"/>
<path d="M544.25 629.25H450.25C429.263 629.25 412.25 646.263 412.25 667.25V761.25C412.25 782.237 429.263 799.25 450.25 799.25H544.25C565.237 799.25 582.25 782.237 582.25 761.25V667.25C582.25 646.263 565.237 629.25 544.25 629.25Z" fill="url(#paint5_linear_172_29)"/>
<path d="M544.25 195.25H450.25C429.263 195.25 412.25 212.263 412.25 233.25V327.25C412.25 348.237 429.263 365.25 450.25 365.25H544.25C565.237 365.25 582.25 348.237 582.25 327.25V233.25C582.25 212.263 565.237 195.25 544.25 195.25Z" fill="url(#paint6_linear_172_29)"/>
<path d="M327.25 412.25H233.25C212.263 412.25 195.25 429.263 195.25 450.25V544.25C195.25 565.237 212.263 582.25 233.25 582.25H327.25C348.237 582.25 365.25 565.237 365.25 544.25V450.25C365.25 429.263 348.237 412.25 327.25 412.25Z" fill="url(#paint7_linear_172_29)"/>
<path d="M761.25 412.25H667.25C646.263 412.25 629.25 429.263 629.25 450.25V544.25C629.25 565.237 646.263 582.25 667.25 582.25H761.25C782.237 582.25 799.25 565.237 799.25 544.25V450.25C799.25 429.263 782.237 412.25 761.25 412.25Z" fill="url(#paint8_linear_172_29)"/>
<path d="M544.25 629.25H450.25C429.263 629.25 412.25 646.263 412.25 667.25V761.25C412.25 782.237 429.263 799.25 450.25 799.25H544.25C565.237 799.25 582.25 782.237 582.25 761.25V667.25C582.25 646.263 565.237 629.25 544.25 629.25Z" fill="url(#paint9_linear_172_29)"/>
<path d="M327.25 195.25H233.25C212.263 195.25 195.25 212.263 195.25 233.25V327.25C195.25 348.237 212.263 365.25 233.25 365.25H327.25C348.237 365.25 365.25 348.237 365.25 327.25V233.25C365.25 212.263 348.237 195.25 327.25 195.25Z" fill="#F4BC41"/>
<path d="M761.25 195.25H667.25C646.263 195.25 629.25 212.263 629.25 233.25V327.25C629.25 348.237 646.263 365.25 667.25 365.25H761.25C782.237 365.25 799.25 348.237 799.25 327.25V233.25C799.25 212.263 782.237 195.25 761.25 195.25Z" fill="#5BC7D8"/>
<path d="M544.25 412.25H450.25C429.263 412.25 412.25 429.263 412.25 450.25V544.25C412.25 565.237 429.263 582.25 450.25 582.25H544.25C565.237 582.25 582.25 565.237 582.25 544.25V450.25C582.25 429.263 565.237 412.25 544.25 412.25Z" fill="#F2715C"/>
<path d="M327.25 629.25H233.25C212.263 629.25 195.25 646.263 195.25 667.25V761.25C195.25 782.237 212.263 799.25 233.25 799.25H327.25C348.237 799.25 365.25 782.237 365.25 761.25V667.25C365.25 646.263 348.237 629.25 327.25 629.25Z" fill="#836DDD"/>
<path d="M761.25 629.25H667.25C646.263 629.25 629.25 646.263 629.25 667.25V761.25C629.25 782.237 646.263 799.25 667.25 799.25H761.25C782.237 799.25 799.25 782.237 799.25 761.25V667.25C799.25 646.263 782.237 629.25 761.25 629.25Z" fill="#72F6AA"/>
<path d="M327.25 195.25H233.25C212.263 195.25 195.25 212.263 195.25 233.25V327.25C195.25 348.237 212.263 365.25 233.25 365.25H327.25C348.237 365.25 365.25 348.237 365.25 327.25V233.25C365.25 212.263 348.237 195.25 327.25 195.25Z" fill="url(#paint10_linear_172_29)"/>
<path d="M761.25 195.25H667.25C646.263 195.25 629.25 212.263 629.25 233.25V327.25C629.25 348.237 646.263 365.25 667.25 365.25H761.25C782.237 365.25 799.25 348.237 799.25 327.25V233.25C799.25 212.263 782.237 195.25 761.25 195.25Z" fill="url(#paint11_linear_172_29)"/>
<path d="M544.25 412.25H450.25C429.263 412.25 412.25 429.263 412.25 450.25V544.25C412.25 565.237 429.263 582.25 450.25 582.25H544.25C565.237 582.25 582.25 565.237 582.25 544.25V450.25C582.25 429.263 565.237 412.25 544.25 412.25Z" fill="url(#paint12_linear_172_29)"/>
<path d="M327.25 629.25H233.25C212.263 629.25 195.25 646.263 195.25 667.25V761.25C195.25 782.237 212.263 799.25 233.25 799.25H327.25C348.237 799.25 365.25 782.237 365.25 761.25V667.25C365.25 646.263 348.237 629.25 327.25 629.25Z" fill="url(#paint13_linear_172_29)"/>
<path d="M761.25 629.25H667.25C646.263 629.25 629.25 646.263 629.25 667.25V761.25C629.25 782.237 646.263 799.25 667.25 799.25H761.25C782.237 799.25 799.25 782.237 799.25 761.25V667.25C799.25 646.263 782.237 629.25 761.25 629.25Z" fill="url(#paint14_linear_172_29)"/>
</g>
<path d="M993.25 497.25L993.15 628.05L992.75 669.75L992.15 700.05L991.25 724.65L990.05 745.65L988.65 764.25L987.05 780.85L985.15 796.05L982.95 810.05L980.45 822.95L977.75 835.05L974.85 846.25L971.55 856.85L968.05 866.85L964.25 876.25L960.15 885.05L955.75 893.45L951.05 901.35L946.05 908.85L940.65 915.95L935.05 922.65L929.05 929.05L922.65 935.05L915.95 940.65L908.85 946.05L901.35 951.05L893.45 955.75L885.05 960.15L876.25 964.25L866.85 968.05L856.85 971.55L846.25 974.85L835.05 977.75L822.95 980.45L810.05 982.95L796.05 985.15L780.85 987.05L764.25 988.65L745.65 990.05L724.65 991.25L700.05 992.15L669.75 992.75L628.05 993.15L497.25 993.25L366.45 993.15L324.75 992.75L294.45 992.15L269.85 991.25L248.85 990.05L230.25 988.65L213.65 987.05L198.45 985.15L184.45 982.95L171.55 980.45L159.45 977.75L148.25 974.85L137.65 971.55L127.65 968.05L118.25 964.25L109.45 960.15L101.05 955.75L93.15 951.05L85.65 946.05L78.55 940.65L71.85 935.05L65.45 929.05L59.45 922.65L53.85 915.95L48.45 908.85L43.45 901.35L38.75 893.45L34.35 885.05L30.25 876.25L26.45 866.85L22.95 856.85L19.65 846.25L16.75 835.05L14.05 822.95L11.55 810.05L9.35 796.05L7.45 780.85L5.85 764.25L4.45 745.65L3.25 724.65L2.35 700.05L1.75 669.75L1.35 628.05L1.25 497.25L1.35 366.45L1.75 324.75L2.35 294.45L3.25 269.85L4.45 248.85L5.85 230.25L7.45 213.65L9.35 198.45L11.55 184.45L14.05 171.55L16.75 159.45L19.65 148.25L22.95 137.65L26.45 127.65L30.25 118.25L34.35 109.45L38.75 101.05L43.45 93.15L48.45 85.65L53.85 78.55L59.45 71.85L65.45 65.45L71.85 59.45L78.55 53.85L85.65 48.45L93.15 43.45L101.05 38.75L109.45 34.35L118.25 30.25L127.65 26.45L137.65 22.95L148.25 19.65L159.45 16.75L171.55 14.05L184.45 11.55L198.45 9.35L213.65 7.45L230.25 5.85L248.85 4.45L269.85 3.25L294.45 2.35L324.75 1.75L366.45 1.35L497.25 1.25L628.05 1.35L669.75 1.75L700.05 2.35L724.65 3.25L745.65 4.45L764.25 5.85L780.85 7.45L796.05 9.35L810.05 11.55L822.95 14.05L835.05 16.75L846.25 19.65L856.85 22.95L866.85 26.45L876.25 30.25L885.05 34.35L893.45 38.75L901.35 43.45L908.85 48.45L915.95 53.85L922.65 59.45L929.05 65.45L935.05 71.85L940.65 78.55L946.05 85.65L951.05 93.15L955.75 101.05L960.15 109.45L964.25 118.25L968.05 127.65L971.55 137.65L974.85 148.25L977.75 159.45L980.45 171.55L982.95 184.45L985.15 198.45L987.05 213.65L988.65 230.25L990.05 248.85L991.25 269.85L992.15 294.45L992.75 324.75L993.15 366.45L993.25 497.25Z" stroke="url(#paint15_linear_172_29)" stroke-width="2.5"/>
<defs>
<linearGradient id="paint0_linear_172_29" x1="1.25" y1="1.25" x2="1.25" y2="993.25" gradientUnits="userSpaceOnUse">
<stop stop-color="#494D56"/>
<stop offset="0.55" stop-color="#363A42"/>
<stop offset="1" stop-color="#282B31"/>
</linearGradient>
<radialGradient id="paint1_radial_172_29" cx="0" cy="0" r="1" gradientUnits="userSpaceOnUse" gradientTransform="translate(378.21 199.65) scale(892.8)">
<stop stop-color="white" stop-opacity="0.16"/>
<stop offset="0.45" stop-color="white" stop-opacity="0.03"/>
<stop offset="1" stop-color="white" stop-opacity="0"/>
</radialGradient>
<linearGradient id="paint2_linear_172_29" x1="412.25" y1="195.25" x2="412.25" y2="365.25" gradientUnits="userSpaceOnUse">
<stop stop-color="#171719"/>
<stop offset="1" stop-color="#1F1F22"/>
</linearGradient>
<linearGradient id="paint3_linear_172_29" x1="195.25" y1="412.25" x2="195.25" y2="582.25" gradientUnits="userSpaceOnUse">
<stop stop-color="#171719"/>
<stop offset="1" stop-color="#1F1F22"/>
</linearGradient>
<linearGradient id="paint4_linear_172_29" x1="629.25" y1="412.25" x2="629.25" y2="582.25" gradientUnits="userSpaceOnUse">
<stop stop-color="#171719"/>
<stop offset="1" stop-color="#1F1F22"/>
</linearGradient>
<linearGradient id="paint5_linear_172_29" x1="412.25" y1="629.25" x2="412.25" y2="799.25" gradientUnits="userSpaceOnUse">
<stop stop-color="#171719"/>
<stop offset="1" stop-color="#1F1F22"/>
</linearGradient>
<linearGradient id="paint6_linear_172_29" x1="412.25" y1="195.25" x2="412.25" y2="365.25" gradientUnits="userSpaceOnUse">
<stop stop-opacity="0.55"/>
<stop offset="0.4" stop-opacity="0.12"/>
<stop offset="0.85" stop-opacity="0"/>
<stop offset="1" stop-color="white" stop-opacity="0.07"/>
</linearGradient>
<linearGradient id="paint7_linear_172_29" x1="195.25" y1="412.25" x2="195.25" y2="582.25" gradientUnits="userSpaceOnUse">
<stop stop-opacity="0.55"/>
<stop offset="0.4" stop-opacity="0.12"/>
<stop offset="0.85" stop-opacity="0"/>
<stop offset="1" stop-color="white" stop-opacity="0.07"/>
</linearGradient>
<linearGradient id="paint8_linear_172_29" x1="629.25" y1="412.25" x2="629.25" y2="582.25" gradientUnits="userSpaceOnUse">
<stop stop-opacity="0.55"/>
<stop offset="0.4" stop-opacity="0.12"/>
<stop offset="0.85" stop-opacity="0"/>
<stop offset="1" stop-color="white" stop-opacity="0.07"/>
</linearGradient>
<linearGradient id="paint9_linear_172_29" x1="412.25" y1="629.25" x2="412.25" y2="799.25" gradientUnits="userSpaceOnUse">
<stop stop-opacity="0.55"/>
<stop offset="0.4" stop-opacity="0.12"/>
<stop offset="0.85" stop-opacity="0"/>
<stop offset="1" stop-color="white" stop-opacity="0.07"/>
</linearGradient>
<linearGradient id="paint10_linear_172_29" x1="195.25" y1="195.25" x2="195.25" y2="365.25" gradientUnits="userSpaceOnUse">
<stop stop-color="white" stop-opacity="0.42"/>
<stop offset="0.4" stop-color="white" stop-opacity="0.08"/>
<stop offset="0.55" stop-color="white" stop-opacity="0"/>
<stop offset="1" stop-opacity="0.14"/>
</linearGradient>
<linearGradient id="paint11_linear_172_29" x1="629.25" y1="195.25" x2="629.25" y2="365.25" gradientUnits="userSpaceOnUse">
<stop stop-color="white" stop-opacity="0.42"/>
<stop offset="0.4" stop-color="white" stop-opacity="0.08"/>
<stop offset="0.55" stop-color="white" stop-opacity="0"/>
<stop offset="1" stop-opacity="0.14"/>
</linearGradient>
<linearGradient id="paint12_linear_172_29" x1="412.25" y1="412.25" x2="412.25" y2="582.25" gradientUnits="userSpaceOnUse">
<stop stop-color="white" stop-opacity="0.42"/>
<stop offset="0.4" stop-color="white" stop-opacity="0.08"/>
<stop offset="0.55" stop-color="white" stop-opacity="0"/>
<stop offset="1" stop-opacity="0.14"/>
</linearGradient>
<linearGradient id="paint13_linear_172_29" x1="195.25" y1="629.25" x2="195.25" y2="799.25" gradientUnits="userSpaceOnUse">
<stop stop-color="white" stop-opacity="0.42"/>
<stop offset="0.4" stop-color="white" stop-opacity="0.08"/>
<stop offset="0.55" stop-color="white" stop-opacity="0"/>
<stop offset="1" stop-opacity="0.14"/>
</linearGradient>
<linearGradient id="paint14_linear_172_29" x1="629.25" y1="629.25" x2="629.25" y2="799.25" gradientUnits="userSpaceOnUse">
<stop stop-color="white" stop-opacity="0.42"/>
<stop offset="0.4" stop-color="white" stop-opacity="0.08"/>
<stop offset="0.55" stop-color="white" stop-opacity="0"/>
<stop offset="1" stop-opacity="0.14"/>
</linearGradient>
<linearGradient id="paint15_linear_172_29" x1="1.25" y1="1.25" x2="1.25" y2="993.25" gradientUnits="userSpaceOnUse">
<stop stop-color="white" stop-opacity="0.28"/>
<stop offset="0.22" stop-color="white" stop-opacity="0.06"/>
<stop offset="0.6" stop-color="white" stop-opacity="0"/>
<stop offset="1" stop-opacity="0.18"/>
</linearGradient>
</defs>
</svg>
